<svg width="48" height="48" viewBox="0 0 48 48" fill="none" xmlns="http://www.w3.org/2000/svg">
<path d="M31.4472 8C28.5913 8 25.8504 9.41253 24.0614 11.6447C22.2723 9.41253 19.5314 8 16.6755 8C11.6203 8 7.64844 12.2202 7.64844 17.5913C7.64844 24.1831 13.2288 29.5542 21.6814 37.7155L24.0614 40L26.4412 37.6981C34.8938 29.5542 40.4742 24.1831 40.4742 17.5913C40.4742 12.2202 36.5023 8 31.4472 8ZM24.2254 35.1172L24.0614 35.2916L23.8972 35.1172C16.0846 27.6011 10.931 22.6311 10.931 17.5913C10.931 14.1035 13.3929 11.4877 16.6755 11.4877C19.2031 11.4877 21.665 13.2142 22.535 15.6033H25.6041C26.4576 13.2142 28.9195 11.4877 31.4472 11.4877C34.7297 11.4877 37.1916 14.1035 37.1916 17.5913C37.1916 22.6311 32.038 27.6011 24.2254 35.1172Z" fill="#F0ECE5"/>
</svg>
